<mxfile host="app.diagrams.net" agent="Mozilla/5.0 (Windows NT 10.0; Win64; x64) AppleWebKit/537.36 (KHTML, like Gecko) Chrome/134.0.0.0 YaBrowser/25.4.0.0 Safari/537.36" version="27.1.4">
  <diagram name="Страница — 1" id="X4NPy91Fna6PLJwL7bxH">
    <mxGraphModel dx="1042" dy="540" grid="1" gridSize="10" guides="1" tooltips="1" connect="1" arrows="1" fold="1" page="1" pageScale="1" pageWidth="827" pageHeight="1169" math="0" shadow="0">
      <root>
        <mxCell id="0" />
        <mxCell id="1" parent="0" />
        <mxCell id="oawUtUNrq_sqeCP0JlnW-1" value="documents" style="rounded=0;whiteSpace=wrap;html=1;fillColor=#d0cee2;strokeColor=#56517e;" vertex="1" parent="1">
          <mxGeometry x="40" y="30" width="120" height="60" as="geometry" />
        </mxCell>
        <mxCell id="oawUtUNrq_sqeCP0JlnW-2" value="" style="ellipse;whiteSpace=wrap;html=1;aspect=fixed;fillColor=#d0cee2;strokeColor=#56517e;" vertex="1" parent="1">
          <mxGeometry x="80" y="340" width="40" height="40" as="geometry" />
        </mxCell>
        <mxCell id="oawUtUNrq_sqeCP0JlnW-3" value="" style="endArrow=none;dashed=1;html=1;dashPattern=1 3;strokeWidth=2;rounded=0;entryX=0.5;entryY=1;entryDx=0;entryDy=0;exitX=0.5;exitY=0;exitDx=0;exitDy=0;" edge="1" parent="1" source="oawUtUNrq_sqeCP0JlnW-2" target="oawUtUNrq_sqeCP0JlnW-1">
          <mxGeometry width="50" height="50" relative="1" as="geometry">
            <mxPoint x="390" y="310" as="sourcePoint" />
            <mxPoint x="110" y="100" as="targetPoint" />
          </mxGeometry>
        </mxCell>
        <mxCell id="oawUtUNrq_sqeCP0JlnW-5" value="main" style="rounded=0;whiteSpace=wrap;html=1;fillColor=#fad7ac;strokeColor=#b46504;" vertex="1" parent="1">
          <mxGeometry x="210" y="30" width="120" height="60" as="geometry" />
        </mxCell>
        <mxCell id="oawUtUNrq_sqeCP0JlnW-6" value="" style="ellipse;whiteSpace=wrap;html=1;aspect=fixed;fillColor=#fad7ac;strokeColor=#b46504;" vertex="1" parent="1">
          <mxGeometry x="250" y="340" width="40" height="40" as="geometry" />
        </mxCell>
        <mxCell id="oawUtUNrq_sqeCP0JlnW-7" value="" style="endArrow=none;dashed=1;html=1;dashPattern=1 3;strokeWidth=2;rounded=0;exitX=0.5;exitY=0;exitDx=0;exitDy=0;entryX=0.5;entryY=1;entryDx=0;entryDy=0;" edge="1" parent="1" source="oawUtUNrq_sqeCP0JlnW-6" target="oawUtUNrq_sqeCP0JlnW-5">
          <mxGeometry width="50" height="50" relative="1" as="geometry">
            <mxPoint x="260" y="220" as="sourcePoint" />
            <mxPoint x="280" y="100" as="targetPoint" />
          </mxGeometry>
        </mxCell>
        <mxCell id="oawUtUNrq_sqeCP0JlnW-8" value="1.0" style="text;html=1;align=center;verticalAlign=middle;whiteSpace=wrap;rounded=0;" vertex="1" parent="1">
          <mxGeometry x="210" y="360" width="60" height="30" as="geometry" />
        </mxCell>
        <mxCell id="oawUtUNrq_sqeCP0JlnW-9" value="Готовые Диаграммы" style="text;html=1;align=center;verticalAlign=middle;whiteSpace=wrap;rounded=0;rotation=0;" vertex="1" parent="1">
          <mxGeometry x="10" y="200" width="140" height="50" as="geometry" />
        </mxCell>
        <mxCell id="oawUtUNrq_sqeCP0JlnW-10" value="client_window" style="rounded=0;whiteSpace=wrap;html=1;fillColor=#fad9d5;strokeColor=#ae4132;" vertex="1" parent="1">
          <mxGeometry x="380" y="30" width="120" height="60" as="geometry" />
        </mxCell>
        <mxCell id="oawUtUNrq_sqeCP0JlnW-11" value="" style="ellipse;whiteSpace=wrap;html=1;aspect=fixed;fillColor=#fad9d5;strokeColor=#ae4132;" vertex="1" parent="1">
          <mxGeometry x="420" y="180" width="40" height="40" as="geometry" />
        </mxCell>
        <mxCell id="oawUtUNrq_sqeCP0JlnW-12" value="" style="endArrow=none;dashed=1;html=1;dashPattern=1 3;strokeWidth=2;rounded=0;entryX=0.5;entryY=1;entryDx=0;entryDy=0;exitX=0.5;exitY=0;exitDx=0;exitDy=0;" edge="1" parent="1" source="oawUtUNrq_sqeCP0JlnW-11" target="oawUtUNrq_sqeCP0JlnW-10">
          <mxGeometry width="50" height="50" relative="1" as="geometry">
            <mxPoint x="520" y="270" as="sourcePoint" />
            <mxPoint x="570" y="220" as="targetPoint" />
          </mxGeometry>
        </mxCell>
        <mxCell id="oawUtUNrq_sqeCP0JlnW-13" value="Написание интерфейса" style="text;html=1;align=center;verticalAlign=middle;whiteSpace=wrap;rounded=0;" vertex="1" parent="1">
          <mxGeometry x="310" y="150" width="150" height="30" as="geometry" />
        </mxCell>
        <mxCell id="oawUtUNrq_sqeCP0JlnW-14" value="" style="ellipse;whiteSpace=wrap;html=1;aspect=fixed;fillColor=#fad9d5;strokeColor=#ae4132;" vertex="1" parent="1">
          <mxGeometry x="420" y="280" width="40" height="40" as="geometry" />
        </mxCell>
        <mxCell id="oawUtUNrq_sqeCP0JlnW-15" value="" style="endArrow=none;dashed=1;html=1;dashPattern=1 3;strokeWidth=2;rounded=0;entryX=0.5;entryY=1;entryDx=0;entryDy=0;exitX=0.5;exitY=0;exitDx=0;exitDy=0;" edge="1" parent="1" source="oawUtUNrq_sqeCP0JlnW-14" target="oawUtUNrq_sqeCP0JlnW-11">
          <mxGeometry width="50" height="50" relative="1" as="geometry">
            <mxPoint x="420" y="410" as="sourcePoint" />
            <mxPoint x="470" y="360" as="targetPoint" />
          </mxGeometry>
        </mxCell>
        <mxCell id="oawUtUNrq_sqeCP0JlnW-16" value="Взаимодействие с сервером" style="text;html=1;align=center;verticalAlign=middle;whiteSpace=wrap;rounded=0;" vertex="1" parent="1">
          <mxGeometry x="390" y="250" width="180" height="30" as="geometry" />
        </mxCell>
        <mxCell id="oawUtUNrq_sqeCP0JlnW-18" value="" style="ellipse;whiteSpace=wrap;html=1;aspect=fixed;fillColor=#fad9d5;strokeColor=#ae4132;" vertex="1" parent="1">
          <mxGeometry x="420" y="340" width="40" height="40" as="geometry" />
        </mxCell>
        <mxCell id="oawUtUNrq_sqeCP0JlnW-19" value="" style="endArrow=none;dashed=1;html=1;dashPattern=1 3;strokeWidth=2;rounded=0;entryX=0.5;entryY=1;entryDx=0;entryDy=0;" edge="1" parent="1" source="oawUtUNrq_sqeCP0JlnW-18" target="oawUtUNrq_sqeCP0JlnW-14">
          <mxGeometry width="50" height="50" relative="1" as="geometry">
            <mxPoint x="320" y="440" as="sourcePoint" />
            <mxPoint x="370" y="390" as="targetPoint" />
          </mxGeometry>
        </mxCell>
        <mxCell id="oawUtUNrq_sqeCP0JlnW-20" value="" style="endArrow=none;dashed=1;html=1;dashPattern=1 3;strokeWidth=2;rounded=0;entryX=0;entryY=0.5;entryDx=0;entryDy=0;exitX=1;exitY=0.5;exitDx=0;exitDy=0;" edge="1" parent="1" source="oawUtUNrq_sqeCP0JlnW-6" target="oawUtUNrq_sqeCP0JlnW-18">
          <mxGeometry width="50" height="50" relative="1" as="geometry">
            <mxPoint x="290" y="480" as="sourcePoint" />
            <mxPoint x="340" y="430" as="targetPoint" />
          </mxGeometry>
        </mxCell>
        <mxCell id="oawUtUNrq_sqeCP0JlnW-21" value="Доработка интерфейса" style="text;html=1;align=center;verticalAlign=middle;whiteSpace=wrap;rounded=0;" vertex="1" parent="1">
          <mxGeometry x="360" y="380" width="156" height="30" as="geometry" />
        </mxCell>
        <mxCell id="oawUtUNrq_sqeCP0JlnW-22" value="server and database" style="rounded=0;whiteSpace=wrap;html=1;fillColor=#b0e3e6;strokeColor=#0e8088;" vertex="1" parent="1">
          <mxGeometry x="570" y="30" width="120" height="60" as="geometry" />
        </mxCell>
        <mxCell id="oawUtUNrq_sqeCP0JlnW-23" value="" style="ellipse;whiteSpace=wrap;html=1;aspect=fixed;fillColor=#b0e3e6;strokeColor=#0e8088;" vertex="1" parent="1">
          <mxGeometry x="610" y="130" width="40" height="40" as="geometry" />
        </mxCell>
        <mxCell id="oawUtUNrq_sqeCP0JlnW-25" value="Написание сервера" style="text;html=1;align=center;verticalAlign=middle;whiteSpace=wrap;rounded=0;" vertex="1" parent="1">
          <mxGeometry x="500" y="100" width="150" height="30" as="geometry" />
        </mxCell>
        <mxCell id="oawUtUNrq_sqeCP0JlnW-28" value="" style="endArrow=none;dashed=1;html=1;dashPattern=1 3;strokeWidth=2;rounded=0;entryX=0.5;entryY=1;entryDx=0;entryDy=0;exitX=0.5;exitY=0;exitDx=0;exitDy=0;" edge="1" parent="1" source="oawUtUNrq_sqeCP0JlnW-23" target="oawUtUNrq_sqeCP0JlnW-22">
          <mxGeometry width="50" height="50" relative="1" as="geometry">
            <mxPoint x="550" y="170" as="sourcePoint" />
            <mxPoint x="600" y="120" as="targetPoint" />
          </mxGeometry>
        </mxCell>
        <mxCell id="oawUtUNrq_sqeCP0JlnW-29" value="" style="ellipse;whiteSpace=wrap;html=1;aspect=fixed;fillColor=#b0e3e6;strokeColor=#0e8088;" vertex="1" parent="1">
          <mxGeometry x="610" y="200" width="40" height="40" as="geometry" />
        </mxCell>
        <mxCell id="oawUtUNrq_sqeCP0JlnW-30" value="" style="endArrow=none;dashed=1;html=1;dashPattern=1 3;strokeWidth=2;rounded=0;entryX=0.5;entryY=1;entryDx=0;entryDy=0;exitX=0.5;exitY=0;exitDx=0;exitDy=0;" edge="1" parent="1" source="oawUtUNrq_sqeCP0JlnW-29" target="oawUtUNrq_sqeCP0JlnW-23">
          <mxGeometry width="50" height="50" relative="1" as="geometry">
            <mxPoint x="600" y="350" as="sourcePoint" />
            <mxPoint x="650" y="300" as="targetPoint" />
          </mxGeometry>
        </mxCell>
        <mxCell id="oawUtUNrq_sqeCP0JlnW-31" value="multiuser_server" style="rounded=0;whiteSpace=wrap;html=1;fillColor=#b1ddf0;strokeColor=#10739e;" vertex="1" parent="1">
          <mxGeometry x="740" y="30" width="120" height="60" as="geometry" />
        </mxCell>
        <mxCell id="oawUtUNrq_sqeCP0JlnW-32" value="" style="ellipse;whiteSpace=wrap;html=1;aspect=fixed;fillColor=#b1ddf0;strokeColor=#10739e;" vertex="1" parent="1">
          <mxGeometry x="780" y="200" width="40" height="40" as="geometry" />
        </mxCell>
        <mxCell id="oawUtUNrq_sqeCP0JlnW-34" value="" style="endArrow=none;dashed=1;html=1;dashPattern=1 3;strokeWidth=2;rounded=0;entryX=0.5;entryY=1;entryDx=0;entryDy=0;exitX=0.5;exitY=0;exitDx=0;exitDy=0;" edge="1" parent="1" source="oawUtUNrq_sqeCP0JlnW-32" target="oawUtUNrq_sqeCP0JlnW-31">
          <mxGeometry width="50" height="50" relative="1" as="geometry">
            <mxPoint x="780" y="350" as="sourcePoint" />
            <mxPoint x="830" y="300" as="targetPoint" />
          </mxGeometry>
        </mxCell>
        <mxCell id="oawUtUNrq_sqeCP0JlnW-35" value="Сервер неск. клиентов" style="text;html=1;align=center;verticalAlign=middle;whiteSpace=wrap;rounded=0;" vertex="1" parent="1">
          <mxGeometry x="710" y="240" width="180" height="30" as="geometry" />
        </mxCell>
        <mxCell id="oawUtUNrq_sqeCP0JlnW-36" value="" style="endArrow=none;dashed=1;html=1;dashPattern=1 3;strokeWidth=2;rounded=0;entryX=0;entryY=0.5;entryDx=0;entryDy=0;exitX=1;exitY=0.5;exitDx=0;exitDy=0;" edge="1" parent="1" source="oawUtUNrq_sqeCP0JlnW-29" target="oawUtUNrq_sqeCP0JlnW-32">
          <mxGeometry width="50" height="50" relative="1" as="geometry">
            <mxPoint x="600" y="310" as="sourcePoint" />
            <mxPoint x="650" y="260" as="targetPoint" />
          </mxGeometry>
        </mxCell>
        <mxCell id="oawUtUNrq_sqeCP0JlnW-37" value="" style="ellipse;whiteSpace=wrap;html=1;aspect=fixed;fillColor=#b0e3e6;strokeColor=#0e8088;" vertex="1" parent="1">
          <mxGeometry x="610" y="280" width="40" height="40" as="geometry" />
        </mxCell>
        <mxCell id="oawUtUNrq_sqeCP0JlnW-38" value="" style="endArrow=none;dashed=1;html=1;dashPattern=1 3;strokeWidth=2;rounded=0;entryX=0.5;entryY=1;entryDx=0;entryDy=0;exitX=0.5;exitY=0;exitDx=0;exitDy=0;" edge="1" parent="1" source="oawUtUNrq_sqeCP0JlnW-37" target="oawUtUNrq_sqeCP0JlnW-29">
          <mxGeometry width="50" height="50" relative="1" as="geometry">
            <mxPoint x="510" y="410" as="sourcePoint" />
            <mxPoint x="560" y="360" as="targetPoint" />
          </mxGeometry>
        </mxCell>
        <mxCell id="oawUtUNrq_sqeCP0JlnW-39" value="Синглтон" style="text;html=1;align=center;verticalAlign=middle;whiteSpace=wrap;rounded=0;" vertex="1" parent="1">
          <mxGeometry x="650" y="300" width="60" height="30" as="geometry" />
        </mxCell>
        <mxCell id="oawUtUNrq_sqeCP0JlnW-40" value="" style="endArrow=none;dashed=1;html=1;dashPattern=1 3;strokeWidth=2;rounded=0;entryX=0;entryY=0.5;entryDx=0;entryDy=0;exitX=1;exitY=0.5;exitDx=0;exitDy=0;" edge="1" parent="1" source="oawUtUNrq_sqeCP0JlnW-14" target="oawUtUNrq_sqeCP0JlnW-37">
          <mxGeometry width="50" height="50" relative="1" as="geometry">
            <mxPoint x="500" y="430" as="sourcePoint" />
            <mxPoint x="550" y="380" as="targetPoint" />
          </mxGeometry>
        </mxCell>
        <mxCell id="oawUtUNrq_sqeCP0JlnW-42" value="" style="ellipse;whiteSpace=wrap;html=1;aspect=fixed;fillColor=#b0e3e6;strokeColor=#0e8088;" vertex="1" parent="1">
          <mxGeometry x="610" y="340" width="40" height="40" as="geometry" />
        </mxCell>
        <mxCell id="oawUtUNrq_sqeCP0JlnW-43" value="" style="endArrow=none;dashed=1;html=1;dashPattern=1 3;strokeWidth=2;rounded=0;entryX=0.5;entryY=1;entryDx=0;entryDy=0;exitX=0.5;exitY=0;exitDx=0;exitDy=0;" edge="1" parent="1" source="oawUtUNrq_sqeCP0JlnW-42" target="oawUtUNrq_sqeCP0JlnW-37">
          <mxGeometry width="50" height="50" relative="1" as="geometry">
            <mxPoint x="720" y="480" as="sourcePoint" />
            <mxPoint x="720" y="440" as="targetPoint" />
          </mxGeometry>
        </mxCell>
        <mxCell id="oawUtUNrq_sqeCP0JlnW-44" value="Взаимод-вие с БД" style="text;html=1;align=center;verticalAlign=middle;whiteSpace=wrap;rounded=0;" vertex="1" parent="1">
          <mxGeometry x="570" y="380" width="140" height="30" as="geometry" />
        </mxCell>
        <mxCell id="oawUtUNrq_sqeCP0JlnW-45" value="" style="endArrow=none;dashed=1;html=1;dashPattern=1 3;strokeWidth=2;rounded=0;entryX=0;entryY=0.5;entryDx=0;entryDy=0;exitX=1;exitY=0.5;exitDx=0;exitDy=0;" edge="1" parent="1" source="oawUtUNrq_sqeCP0JlnW-18" target="oawUtUNrq_sqeCP0JlnW-42">
          <mxGeometry width="50" height="50" relative="1" as="geometry">
            <mxPoint x="530" y="430" as="sourcePoint" />
            <mxPoint x="680" y="430" as="targetPoint" />
          </mxGeometry>
        </mxCell>
        <mxCell id="oawUtUNrq_sqeCP0JlnW-46" value="" style="ellipse;whiteSpace=wrap;html=1;aspect=fixed;fillColor=#fad7ac;strokeColor=#b46504;" vertex="1" parent="1">
          <mxGeometry x="250" y="440" width="40" height="40" as="geometry" />
        </mxCell>
        <mxCell id="oawUtUNrq_sqeCP0JlnW-47" value="" style="endArrow=none;dashed=1;html=1;dashPattern=1 3;strokeWidth=2;rounded=0;entryX=0.5;entryY=1;entryDx=0;entryDy=0;exitX=0.5;exitY=0;exitDx=0;exitDy=0;" edge="1" parent="1" source="oawUtUNrq_sqeCP0JlnW-46" target="oawUtUNrq_sqeCP0JlnW-6">
          <mxGeometry width="50" height="50" relative="1" as="geometry">
            <mxPoint x="400" y="500" as="sourcePoint" />
            <mxPoint x="324" y="350" as="targetPoint" />
          </mxGeometry>
        </mxCell>
        <mxCell id="oawUtUNrq_sqeCP0JlnW-48" value="Финальная версия" style="text;html=1;align=center;verticalAlign=middle;whiteSpace=wrap;rounded=0;" vertex="1" parent="1">
          <mxGeometry x="200" y="490" width="140" height="30" as="geometry" />
        </mxCell>
      </root>
    </mxGraphModel>
  </diagram>
</mxfile>
